<svg width="202" height="53" viewBox="0 0 202 53" fill="none" xmlns="http://www.w3.org/2000/svg">
<path d="M29.9851 27.4964C28.7407 27.4964 27.7333 26.489 27.7333 25.3038C27.7333 24.0594 28.7407 23.052 29.9851 23.052C31.2296 23.052 32.1777 24.0594 32.1777 25.3038C32.237 26.489 31.2296 27.4964 29.9851 27.4964ZM24.8296 27.4964C23.5851 27.4964 22.637 26.489 22.637 25.3038C22.637 24.0594 23.6444 23.052 24.8296 23.052C26.074 23.052 27.0814 24.0594 27.0814 25.3038C27.0222 26.489 26.0148 27.4964 24.8296 27.4964ZM19.6148 27.4964C18.3703 27.4964 17.3629 26.489 17.3629 25.3038C17.3629 24.0594 18.3703 23.052 19.6148 23.052C20.8592 23.052 21.8074 24.0594 21.8074 25.3038C21.8074 26.489 20.8 27.4964 19.6148 27.4964ZM19.9703 0.118652V18.4298C19.9703 19.2001 19.3185 19.852 18.5481 19.852H16.3555C16.237 19.852 16.1777 19.9113 16.1777 20.0298V35.3779C16.7111 35.4372 17.2444 35.4372 17.837 35.4372C27.674 35.4372 35.6148 27.4964 35.6148 17.6594C35.5555 8.71125 28.7407 1.24458 19.9703 0.118652Z" fill="#00B956"/>
<path d="M14.3407 14.637C13.0963 14.637 12.1482 13.6296 12.1482 12.3852C12.1482 11.1407 13.1556 10.1333 14.3407 10.1333C15.5852 10.1333 16.5926 11.1407 16.5926 12.3852C16.5926 13.6889 15.5852 14.637 14.3407 14.637ZM17.7778 0C7.94075 0 0 7.94074 0 17.7778C0 26.3111 5.98519 33.4222 13.9852 35.1408V19.2C13.9852 18.4296 14.637 17.837 15.4074 17.7778H16.1185H17.6C17.7185 17.7778 17.7778 17.7185 17.7778 17.6V0Z" fill="#00B956"/>
<path d="M195.556 9.77783V16.4741H186.548V9.77783H182.104V27.4964H186.548V20.326H195.556V27.4964H200V9.77783H195.556Z" fill="#00B956"/>
<path d="M114.904 20.2072L117.63 13.748C117.689 13.5702 117.867 13.5109 117.985 13.5109C118.104 13.5109 118.282 13.5702 118.341 13.748L121.067 20.2072H114.904ZM121.659 11.7332C120.948 10.1332 119.467 9.36279 118.045 9.36279C116.622 9.36279 115.141 10.1332 114.37 11.7332L107.082 27.4961H111.822L113.422 23.7628H122.607L124.207 27.4961H128.948L121.659 11.7332Z" fill="#00B956"/>
<path d="M68.8001 6.57764C66.7261 6.57764 65.4224 7.70356 64.415 9.89616L58.6075 23.2295L52.8001 9.89616C51.7927 7.64431 50.489 6.57764 48.415 6.57764C46.4594 6.57764 44.4446 7.9406 44.4446 11.0221V27.5554H48.889V11.4369L54.6964 24.6517C55.4668 26.4888 56.7113 27.6739 58.5483 27.6739C60.3853 27.6739 61.6298 26.4888 62.4001 24.6517L68.2075 11.4369V27.4962H72.652V10.9628C72.7705 7.9406 70.7557 6.57764 68.8001 6.57764Z" fill="#00B956"/>
<path d="M80.5336 23.7636C80.2965 23.7636 80.178 23.5859 80.178 23.4081V20.2673H91.2595V16.6525H80.178V13.9859C80.178 13.8081 80.3558 13.6303 80.5336 13.6303H91.4965V9.89697H78.341C76.8002 9.89697 75.6743 11.2007 75.6743 12.5636V25.0081C75.6743 26.3711 76.8002 27.6748 78.341 27.6748H91.4965V23.9414H80.5336V23.7636Z" fill="#00B956"/>
<path d="M99.0223 27.4967V13.9263C99.0223 13.7485 99.2 13.5707 99.3778 13.5707H110.341V9.8374H97.1852C95.6445 9.8374 94.5186 11.1411 94.5186 12.5041V27.5559H99.0223V27.4967Z" fill="#00B956"/>
<path d="M169.719 24H168.297C164.622 24 163.141 22.3407 163.141 18.6074C163.141 14.9926 164.385 13.2148 168.297 13.2148H169.719C173.511 13.2148 174.874 14.9926 174.874 18.6074C174.874 22.3407 173.393 24 169.719 24ZM179.2 18.6074C179.2 12.3851 176.534 9.48145 169.837 9.48145H168.297C161.6 9.48145 158.934 12.3851 158.934 18.6074C158.934 24.7111 161.66 27.674 168.356 27.674H169.837C176.474 27.674 179.2 24.7111 179.2 18.6074Z" fill="#00B956"/>
<path d="M151.052 18.6075C150.4 20.3853 149.334 21.5112 146.311 21.5112H144.297V10.726H147.023C149.571 10.726 151.349 12.326 151.349 16.1186C151.289 17.0668 151.289 17.9556 151.052 18.6075ZM139.852 21.5112H137.837C134.815 21.5112 133.749 20.3853 133.097 18.6075C132.86 17.9556 132.86 17.0668 132.86 16.1186C132.86 12.326 134.578 10.726 137.186 10.726H139.911V21.5112H139.852ZM146.489 6.99268H137.719C131.141 6.99268 128.534 10.3112 128.534 16.1186C128.534 17.0075 128.593 17.8371 128.711 18.6075C129.423 22.6964 131.793 25.2445 137.956 25.2445H139.911V27.4964H144.356V25.2445H146.311C152.474 25.2445 154.845 22.7556 155.556 18.6075C155.674 17.8371 155.734 17.0075 155.734 16.1186C155.615 10.3112 153.008 6.99268 146.489 6.99268Z" fill="#00B956"/>
<path d="M197.317 39.8301C198.317 39.8301 199.122 40.1701 199.732 40.8501C200.342 41.5201 200.647 42.4051 200.647 43.5051C200.647 44.5851 200.327 45.4701 199.687 46.1601C199.047 46.8401 198.222 47.1801 197.212 47.1801C196.752 47.1801 196.317 47.0801 195.907 46.8801C195.497 46.6701 195.187 46.3951 194.977 46.0551V50.1501H193.342V40.0101H194.977V40.9551C195.187 40.6151 195.507 40.3451 195.937 40.1451C196.367 39.9351 196.827 39.8301 197.317 39.8301ZM196.972 45.7251C197.572 45.7251 198.062 45.5201 198.442 45.1101C198.822 44.6901 199.012 44.1551 199.012 43.5051C199.012 42.8551 198.822 42.3251 198.442 41.9151C198.062 41.4951 197.572 41.2851 196.972 41.2851C196.352 41.2851 195.852 41.4901 195.472 41.9001C195.092 42.3101 194.902 42.8451 194.902 43.5051C194.902 44.1651 195.092 44.7001 195.472 45.1101C195.852 45.5201 196.352 45.7251 196.972 45.7251Z" fill="#00B956"/>
<path d="M187.037 39.0201C186.727 39.0201 186.457 38.9101 186.227 38.6901C186.007 38.4701 185.897 38.2001 185.897 37.8801C185.897 37.5601 186.007 37.2901 186.227 37.0701C186.447 36.8401 186.717 36.7251 187.037 36.7251C187.357 36.7251 187.627 36.8401 187.847 37.0701C188.077 37.2901 188.192 37.5601 188.192 37.8801C188.192 38.2001 188.077 38.4701 187.847 38.6901C187.627 38.9101 187.357 39.0201 187.037 39.0201ZM190.892 38.6901C190.672 38.9101 190.402 39.0201 190.082 39.0201C189.762 39.0201 189.492 38.9101 189.272 38.6901C189.052 38.4701 188.942 38.2001 188.942 37.8801C188.942 37.5601 189.052 37.2901 189.272 37.0701C189.492 36.8401 189.762 36.7251 190.082 36.7251C190.402 36.7251 190.672 36.8401 190.892 37.0701C191.122 37.2901 191.237 37.5601 191.237 37.8801C191.237 38.2001 191.122 38.4701 190.892 38.6901ZM191.912 43.1451C191.912 43.3251 191.897 43.6251 191.867 44.0451H186.677C186.697 44.5951 186.877 45.0201 187.217 45.3201C187.557 45.6101 188.027 45.7551 188.627 45.7551C189.397 45.7551 189.917 45.4901 190.187 44.9601H191.837C191.727 45.6101 191.372 46.1451 190.772 46.5651C190.182 46.9751 189.467 47.1801 188.627 47.1801C187.527 47.1801 186.657 46.8501 186.017 46.1901C185.377 45.5301 185.057 44.6351 185.057 43.5051C185.057 42.3851 185.372 41.4951 186.002 40.8351C186.642 40.1651 187.497 39.8301 188.567 39.8301C189.567 39.8301 190.372 40.1401 190.982 40.7601C191.602 41.3701 191.912 42.1651 191.912 43.1451ZM186.677 42.8001H190.307C190.297 42.2601 190.137 41.8451 189.827 41.5551C189.527 41.2651 189.097 41.1201 188.537 41.1201C187.967 41.1201 187.517 41.2751 187.187 41.5851C186.857 41.8951 186.687 42.3001 186.677 42.8001Z" fill="#00B956"/>
<path d="M177.163 47.0003V40.0103H178.798V42.7703H181.993V40.0103H183.628V47.0003H181.993V44.1353H178.798V47.0003H177.163Z" fill="#00B956"/>
<path d="M175.82 40.0103V41.5253H173.795V47.0003H172.16V41.5253H170.165V40.0103H175.82Z" fill="#00B956"/>
<path d="M166.013 39.8301C167.013 39.8301 167.818 40.1701 168.428 40.8501C169.038 41.5201 169.343 42.4051 169.343 43.5051C169.343 44.5851 169.023 45.4701 168.383 46.1601C167.743 46.8401 166.918 47.1801 165.908 47.1801C165.448 47.1801 165.013 47.0801 164.603 46.8801C164.193 46.6701 163.883 46.3951 163.673 46.0551V50.1501H162.038V40.0101H163.673V40.9551C163.883 40.6151 164.203 40.3451 164.633 40.1451C165.063 39.9351 165.523 39.8301 166.013 39.8301ZM165.668 45.7251C166.268 45.7251 166.758 45.5201 167.138 45.1101C167.518 44.6901 167.708 44.1551 167.708 43.5051C167.708 42.8551 167.518 42.3251 167.138 41.9151C166.758 41.4951 166.268 41.2851 165.668 41.2851C165.048 41.2851 164.548 41.4901 164.168 41.9001C163.788 42.3101 163.598 42.8451 163.598 43.5051C163.598 44.1651 163.788 44.7001 164.168 45.1101C164.548 45.5201 165.048 45.7251 165.668 45.7251Z" fill="#00B956"/>
<path d="M156.221 47.1801C155.131 47.1801 154.286 46.8351 153.686 46.1451C153.086 45.4551 152.786 44.5751 152.786 43.5051C152.786 42.4451 153.101 41.5701 153.731 40.8801C154.361 40.1801 155.206 39.8301 156.266 39.8301C156.736 39.8301 157.166 39.9301 157.556 40.1301C157.946 40.3301 158.246 40.6051 158.456 40.9551V40.0101H160.091V47.0001H158.456V46.0551C158.256 46.3951 157.941 46.6701 157.511 46.8801C157.091 47.0801 156.661 47.1801 156.221 47.1801ZM156.461 45.7251C157.131 45.7251 157.641 45.5151 157.991 45.0951C158.351 44.6751 158.531 44.1451 158.531 43.5051C158.531 42.8651 158.351 42.3351 157.991 41.9151C157.641 41.4951 157.131 41.2851 156.461 41.2851C155.831 41.2851 155.331 41.4951 154.961 41.9151C154.601 42.3251 154.421 42.8551 154.421 43.5051C154.421 44.1551 154.601 44.6901 154.961 45.1101C155.331 45.5201 155.831 45.7251 156.461 45.7251Z" fill="#00B956"/>
<path d="M151.368 47.0003H149.733V41.3753H146.688V47.0003H145.053V40.0103H151.368V47.0003Z" fill="#00B956"/>
<path d="M138.161 38.9901C137.681 39.3801 137.041 39.5751 136.241 39.5751C135.441 39.5751 134.796 39.3801 134.306 38.9901C133.826 38.5901 133.561 38.0501 133.511 37.3701H134.891C134.931 38.0501 135.381 38.3901 136.241 38.3901C137.101 38.3901 137.551 38.0501 137.591 37.3701H138.971C138.921 38.0501 138.651 38.5901 138.161 38.9901ZM137.861 42.5001L134.756 46.4151V47.0001H133.121V40.0101H134.756V44.5851L137.861 40.6401V40.0101H139.496V47.0001H137.861V42.5001Z" fill="#00B956"/>
<path d="M122.842 40.0103H124.477V42.2603H126.082C126.882 42.2603 127.517 42.4903 127.987 42.9503C128.467 43.4003 128.707 43.9603 128.707 44.6303C128.707 45.2803 128.457 45.8403 127.957 46.3103C127.467 46.7703 126.842 47.0003 126.082 47.0003H122.842V40.0103ZM129.532 47.0003V40.0103H131.167V47.0003H129.532ZM124.477 43.5503V45.7103H125.887C126.247 45.7103 126.522 45.6153 126.712 45.4253C126.902 45.2253 126.997 44.9603 126.997 44.6303C126.997 44.3003 126.902 44.0403 126.712 43.8503C126.522 43.6503 126.247 43.5503 125.887 43.5503H124.477Z" fill="#00B956"/>
<path d="M114.422 47.0003V40.0103H116.057V42.7703H119.252V40.0103H120.887V47.0003H119.252V44.1353H116.057V47.0003H114.422Z" fill="#00B956"/>
<path d="M107.277 40.0103H108.912V42.2603H110.517C111.317 42.2603 111.952 42.4903 112.422 42.9503C112.902 43.4003 113.142 43.9603 113.142 44.6303C113.142 45.2803 112.892 45.8403 112.392 46.3103C111.902 46.7703 111.277 47.0003 110.517 47.0003H107.277V40.0103ZM108.912 43.5503V45.7103H110.322C110.682 45.7103 110.957 45.6153 111.147 45.4253C111.337 45.2253 111.432 44.9603 111.432 44.6303C111.432 44.3003 111.337 44.0403 111.147 43.8503C110.957 43.6503 110.682 43.5503 110.322 43.5503H108.912Z" fill="#00B956"/>
<path d="M98.4922 45.5303H98.7622C99.4922 45.5303 99.8572 45.0253 99.8572 44.0153V40.0103H105.332V47.0003H103.697V41.5253H101.492V43.9403C101.492 44.9103 101.282 45.6753 100.862 46.2353C100.442 46.7953 99.8522 47.0753 99.0922 47.0753H98.4922V45.5303Z" fill="#00B956"/>
<path d="M93.2753 47.1801C92.1853 47.1801 91.3403 46.8351 90.7403 46.1451C90.1403 45.4551 89.8403 44.5751 89.8403 43.5051C89.8403 42.4451 90.1553 41.5701 90.7853 40.8801C91.4153 40.1801 92.2603 39.8301 93.3203 39.8301C93.7903 39.8301 94.2203 39.9301 94.6103 40.1301C95.0003 40.3301 95.3003 40.6051 95.5103 40.9551V40.0101H97.1453V47.0001H95.5103V46.0551C95.3103 46.3951 94.9953 46.6701 94.5653 46.8801C94.1453 47.0801 93.7153 47.1801 93.2753 47.1801ZM93.5153 45.7251C94.1853 45.7251 94.6953 45.5151 95.0453 45.0951C95.4053 44.6751 95.5853 44.1451 95.5853 43.5051C95.5853 42.8651 95.4053 42.3351 95.0453 41.9151C94.6953 41.4951 94.1853 41.2851 93.5153 41.2851C92.8853 41.2851 92.3853 41.4951 92.0153 41.9151C91.6553 42.3251 91.4753 42.8551 91.4753 43.5051C91.4753 44.1551 91.6553 44.6901 92.0153 45.1101C92.3853 45.5201 92.8853 45.7251 93.5153 45.7251Z" fill="#00B956"/>
<path d="M86.7739 42.5003L83.6689 46.4153V47.0003H82.0339V40.0103H83.6689V44.5853L86.7739 40.6403V40.0103H88.4089V47.0003H86.7739V42.5003Z" fill="#00B956"/>
<path d="M79.7959 45.4553H80.6059V48.8003H78.9709V47.0003H73.5559V40.0103H75.1909V45.6353H78.1609V40.0103H79.7959V45.4553Z" fill="#00B956"/>
<path d="M69.9646 42.5003L66.8596 46.4153V47.0003H65.2246V40.0103H66.8596V44.5853L69.9646 40.6403V40.0103H71.5996V47.0003H69.9646V42.5003Z" fill="#00B956"/>
<path d="M63.8042 43.505C63.8042 44.465 63.4792 45.305 62.8292 46.025C62.1792 46.745 61.3592 47.125 60.3692 47.165V50.15H58.7192V47.165C57.7292 47.125 56.9092 46.745 56.2592 46.025C55.6092 45.305 55.2842 44.465 55.2842 43.505C55.2842 42.555 55.6092 41.72 56.2592 41C56.9092 40.27 57.7292 39.885 58.7192 39.845V36.5H60.3692V39.845C61.3592 39.885 62.1792 40.27 62.8292 41C63.4792 41.72 63.8042 42.555 63.8042 43.505ZM56.9192 43.505C56.9192 44.125 57.0892 44.66 57.4292 45.11C57.7692 45.56 58.2342 45.79 58.8242 45.8V41.21C58.2342 41.22 57.7692 41.45 57.4292 41.9C57.0892 42.34 56.9192 42.875 56.9192 43.505ZM60.2642 45.8C60.8542 45.79 61.3192 45.56 61.6592 45.11C61.9992 44.66 62.1692 44.125 62.1692 43.505C62.1692 42.875 61.9992 42.34 61.6592 41.9C61.3192 41.45 60.8542 41.22 60.2642 41.21V45.8Z" fill="#00B956"/>
<path d="M52.8999 45.6651C51.9199 46.7251 50.6049 47.2551 48.9549 47.2551C47.3049 47.2551 45.9849 46.7251 44.9949 45.6651C44.0149 44.6051 43.5249 43.3001 43.5249 41.7501C43.5249 40.2001 44.0149 38.8951 44.9949 37.8351C45.9849 36.7751 47.3049 36.2451 48.9549 36.2451C50.6049 36.2451 51.9199 36.7751 52.8999 37.8351C53.8899 38.8951 54.3849 40.2001 54.3849 41.7501C54.3849 43.3001 53.8899 44.6051 52.8999 45.6651ZM46.2849 44.5851C46.9349 45.3351 47.8249 45.7101 48.9549 45.7101C50.0849 45.7101 50.9699 45.3351 51.6099 44.5851C52.2599 43.8251 52.5799 42.8801 52.5699 41.7501C52.5799 40.6201 52.2599 39.6801 51.6099 38.9301C50.9699 38.1701 50.0849 37.7901 48.9549 37.7901C47.8249 37.7901 46.9349 38.1701 46.2849 38.9301C45.6449 39.6801 45.3299 40.6201 45.3399 41.7501C45.3299 42.8801 45.6449 43.8251 46.2849 44.5851Z" fill="#00B956"/>
</svg>
